<mxfile host="Electron" modified="2024-05-13T18:03:09.940Z" agent="Mozilla/5.0 (X11; Linux x86_64) AppleWebKit/537.36 (KHTML, like Gecko) draw.io/24.2.5 Chrome/120.0.6099.109 Electron/28.1.0 Safari/537.36" etag="B9Pp1LB9iTDx1mwOGWr1" version="24.2.5" type="device">
  <diagram name="Page-1" id="gsKuwTYcefzf_l9XYs32">
    <mxGraphModel dx="988" dy="589" grid="1" gridSize="10" guides="1" tooltips="1" connect="1" arrows="1" fold="1" page="1" pageScale="1" pageWidth="850" pageHeight="1100" math="0" shadow="0">
      <root>
        <mxCell id="0" />
        <mxCell id="1" parent="0" />
        <mxCell id="JR83a1QHuaQf2IRiRY_A-1" value="" style="rounded=1;whiteSpace=wrap;html=1;movable=0;resizable=0;rotatable=0;deletable=0;editable=0;locked=1;connectable=0;strokeWidth=2;fillColor=#f5f5f5;fontColor=#333333;strokeColor=#666666;" vertex="1" parent="1">
          <mxGeometry x="90" y="130" width="750" height="480" as="geometry" />
        </mxCell>
        <mxCell id="JR83a1QHuaQf2IRiRY_A-2" value="Host System" style="rounded=0;whiteSpace=wrap;html=1;fillColor=#ffe6cc;strokeColor=#d79b00;" vertex="1" parent="1">
          <mxGeometry x="370" y="180" width="110" height="30" as="geometry" />
        </mxCell>
        <mxCell id="JR83a1QHuaQf2IRiRY_A-4" value="SSD Device" style="rounded=0;whiteSpace=wrap;html=1;fillColor=#ffe6cc;strokeColor=#d79b00;" vertex="1" parent="1">
          <mxGeometry x="480" y="270" width="90" height="30" as="geometry" />
        </mxCell>
        <mxCell id="JR83a1QHuaQf2IRiRY_A-5" value="Data Cache Manager Base" style="rounded=0;whiteSpace=wrap;html=1;fillColor=#ffe6cc;strokeColor=#d79b00;" vertex="1" parent="1">
          <mxGeometry x="400" y="343" width="90" height="30" as="geometry" />
        </mxCell>
        <mxCell id="JR83a1QHuaQf2IRiRY_A-6" value="" style="shape=curlyBracket;whiteSpace=wrap;html=1;rounded=1;labelPosition=left;verticalLabelPosition=middle;align=right;verticalAlign=middle;direction=south;size=0.4;" vertex="1" parent="1">
          <mxGeometry x="327.5" y="206" width="202.5" height="64" as="geometry" />
        </mxCell>
        <mxCell id="JR83a1QHuaQf2IRiRY_A-7" value="" style="shape=curlyBracket;whiteSpace=wrap;html=1;rounded=1;labelPosition=left;verticalLabelPosition=middle;align=right;verticalAlign=middle;direction=south;size=0.4;" vertex="1" parent="1">
          <mxGeometry x="448.75" y="298" width="152.5" height="45" as="geometry" />
        </mxCell>
        <mxCell id="JR83a1QHuaQf2IRiRY_A-11" value="" style="group" vertex="1" connectable="0" parent="1">
          <mxGeometry x="307" y="270" width="40" height="20" as="geometry" />
        </mxCell>
        <mxCell id="JR83a1QHuaQf2IRiRY_A-8" value="" style="shape=waypoint;sketch=0;fillStyle=solid;size=6;pointerEvents=1;points=[];fillColor=none;resizable=0;rotatable=0;perimeter=centerPerimeter;snapToPoint=1;" vertex="1" parent="JR83a1QHuaQf2IRiRY_A-11">
          <mxGeometry width="20" height="20" as="geometry" />
        </mxCell>
        <mxCell id="JR83a1QHuaQf2IRiRY_A-9" value="" style="shape=waypoint;sketch=0;fillStyle=solid;size=6;pointerEvents=1;points=[];fillColor=none;resizable=0;rotatable=0;perimeter=centerPerimeter;snapToPoint=1;" vertex="1" parent="JR83a1QHuaQf2IRiRY_A-11">
          <mxGeometry x="10" width="20" height="20" as="geometry" />
        </mxCell>
        <mxCell id="JR83a1QHuaQf2IRiRY_A-10" value="" style="shape=waypoint;sketch=0;fillStyle=solid;size=6;pointerEvents=1;points=[];fillColor=none;resizable=0;rotatable=0;perimeter=centerPerimeter;snapToPoint=1;" vertex="1" parent="JR83a1QHuaQf2IRiRY_A-11">
          <mxGeometry x="20" width="20" height="20" as="geometry" />
        </mxCell>
        <mxCell id="JR83a1QHuaQf2IRiRY_A-16" value="Address Maping Unit" style="rounded=0;whiteSpace=wrap;html=1;fillColor=#ffe6cc;strokeColor=#d79b00;" vertex="1" parent="1">
          <mxGeometry x="560" y="343" width="90" height="30" as="geometry" />
        </mxCell>
        <mxCell id="JR83a1QHuaQf2IRiRY_A-17" value="" style="shape=curlyBracket;whiteSpace=wrap;html=1;rounded=1;flipH=1;labelPosition=right;verticalLabelPosition=middle;align=left;verticalAlign=middle;direction=south;" vertex="1" parent="1">
          <mxGeometry x="550" y="373" width="120" height="20" as="geometry" />
        </mxCell>
        <mxCell id="JR83a1QHuaQf2IRiRY_A-18" value="CMT" style="rounded=0;whiteSpace=wrap;html=1;fillColor=#ffe6cc;strokeColor=#d79b00;" vertex="1" parent="1">
          <mxGeometry x="636" y="393" width="70" height="23" as="geometry" />
        </mxCell>
        <mxCell id="JR83a1QHuaQf2IRiRY_A-19" value="" style="endArrow=none;html=1;rounded=0;entryX=0.401;entryY=0.921;entryDx=0;entryDy=0;entryPerimeter=0;edgeStyle=orthogonalEdgeStyle;curved=1;" edge="1" parent="1" target="JR83a1QHuaQf2IRiRY_A-7">
          <mxGeometry width="50" height="50" relative="1" as="geometry">
            <mxPoint x="330" y="340" as="sourcePoint" />
            <mxPoint x="480" y="360" as="targetPoint" />
            <Array as="points">
              <mxPoint x="330" y="340" />
              <mxPoint x="330" y="316" />
            </Array>
          </mxGeometry>
        </mxCell>
        <mxCell id="JR83a1QHuaQf2IRiRY_A-20" value="" style="group" vertex="1" connectable="0" parent="1">
          <mxGeometry x="310" y="340" width="40" height="20" as="geometry" />
        </mxCell>
        <mxCell id="JR83a1QHuaQf2IRiRY_A-21" value="" style="shape=waypoint;sketch=0;fillStyle=solid;size=6;pointerEvents=1;points=[];fillColor=none;resizable=0;rotatable=0;perimeter=centerPerimeter;snapToPoint=1;" vertex="1" parent="JR83a1QHuaQf2IRiRY_A-20">
          <mxGeometry width="20" height="20" as="geometry" />
        </mxCell>
        <mxCell id="JR83a1QHuaQf2IRiRY_A-22" value="" style="shape=waypoint;sketch=0;fillStyle=solid;size=6;pointerEvents=1;points=[];fillColor=none;resizable=0;rotatable=0;perimeter=centerPerimeter;snapToPoint=1;" vertex="1" parent="JR83a1QHuaQf2IRiRY_A-20">
          <mxGeometry x="10" width="20" height="20" as="geometry" />
        </mxCell>
        <mxCell id="JR83a1QHuaQf2IRiRY_A-23" value="" style="shape=waypoint;sketch=0;fillStyle=solid;size=6;pointerEvents=1;points=[];fillColor=none;resizable=0;rotatable=0;perimeter=centerPerimeter;snapToPoint=1;" vertex="1" parent="JR83a1QHuaQf2IRiRY_A-20">
          <mxGeometry x="20" width="20" height="20" as="geometry" />
        </mxCell>
        <mxCell id="JR83a1QHuaQf2IRiRY_A-24" value="" style="group" vertex="1" connectable="0" parent="1">
          <mxGeometry x="530" y="400" width="40" height="20" as="geometry" />
        </mxCell>
        <mxCell id="JR83a1QHuaQf2IRiRY_A-25" value="" style="shape=waypoint;sketch=0;fillStyle=solid;size=6;pointerEvents=1;points=[];fillColor=none;resizable=0;rotatable=0;perimeter=centerPerimeter;snapToPoint=1;" vertex="1" parent="JR83a1QHuaQf2IRiRY_A-24">
          <mxGeometry width="20" height="20" as="geometry" />
        </mxCell>
        <mxCell id="JR83a1QHuaQf2IRiRY_A-26" value="" style="shape=waypoint;sketch=0;fillStyle=solid;size=6;pointerEvents=1;points=[];fillColor=none;resizable=0;rotatable=0;perimeter=centerPerimeter;snapToPoint=1;" vertex="1" parent="JR83a1QHuaQf2IRiRY_A-24">
          <mxGeometry x="10" width="20" height="20" as="geometry" />
        </mxCell>
        <mxCell id="JR83a1QHuaQf2IRiRY_A-27" value="" style="shape=waypoint;sketch=0;fillStyle=solid;size=6;pointerEvents=1;points=[];fillColor=none;resizable=0;rotatable=0;perimeter=centerPerimeter;snapToPoint=1;" vertex="1" parent="JR83a1QHuaQf2IRiRY_A-24">
          <mxGeometry x="20" width="20" height="20" as="geometry" />
        </mxCell>
        <mxCell id="JR83a1QHuaQf2IRiRY_A-30" value="" style="shape=curlyBracket;whiteSpace=wrap;html=1;rounded=1;flipH=1;labelPosition=right;verticalLabelPosition=middle;align=left;verticalAlign=middle;direction=south;" vertex="1" parent="1">
          <mxGeometry x="385" y="373" width="120" height="20" as="geometry" />
        </mxCell>
        <mxCell id="JR83a1QHuaQf2IRiRY_A-31" value="" style="group" vertex="1" connectable="0" parent="1">
          <mxGeometry x="484" y="400" width="40" height="20" as="geometry" />
        </mxCell>
        <mxCell id="JR83a1QHuaQf2IRiRY_A-32" value="" style="shape=waypoint;sketch=0;fillStyle=solid;size=6;pointerEvents=1;points=[];fillColor=none;resizable=0;rotatable=0;perimeter=centerPerimeter;snapToPoint=1;" vertex="1" parent="JR83a1QHuaQf2IRiRY_A-31">
          <mxGeometry width="20" height="20" as="geometry" />
        </mxCell>
        <mxCell id="JR83a1QHuaQf2IRiRY_A-33" value="" style="shape=waypoint;sketch=0;fillStyle=solid;size=6;pointerEvents=1;points=[];fillColor=none;resizable=0;rotatable=0;perimeter=centerPerimeter;snapToPoint=1;" vertex="1" parent="JR83a1QHuaQf2IRiRY_A-31">
          <mxGeometry x="10" width="20" height="20" as="geometry" />
        </mxCell>
        <mxCell id="JR83a1QHuaQf2IRiRY_A-34" value="" style="shape=waypoint;sketch=0;fillStyle=solid;size=6;pointerEvents=1;points=[];fillColor=none;resizable=0;rotatable=0;perimeter=centerPerimeter;snapToPoint=1;" vertex="1" parent="JR83a1QHuaQf2IRiRY_A-31">
          <mxGeometry x="20" width="20" height="20" as="geometry" />
        </mxCell>
        <mxCell id="JR83a1QHuaQf2IRiRY_A-35" value="Data cache flash" style="rounded=0;whiteSpace=wrap;html=1;fillColor=#ffe6cc;strokeColor=#d79b00;" vertex="1" parent="1">
          <mxGeometry x="337" y="393" width="95" height="27" as="geometry" />
        </mxCell>
        <mxCell id="JR83a1QHuaQf2IRiRY_A-37" value="&lt;font style=&quot;font-size: 9px;&quot;&gt;shared mem pool&lt;/font&gt;" style="ellipse;whiteSpace=wrap;html=1;fillColor=#d5e8d4;strokeColor=#82b366;" vertex="1" parent="1">
          <mxGeometry x="730" y="210" width="80" height="30" as="geometry" />
        </mxCell>
        <mxCell id="JR83a1QHuaQf2IRiRY_A-38" value="&lt;font style=&quot;font-size: 8px;&quot;&gt;repartition&lt;/font&gt;" style="rhombus;whiteSpace=wrap;html=1;fillColor=#d5e8d4;strokeColor=#82b366;" vertex="1" parent="1">
          <mxGeometry x="650" y="260" width="50" height="50" as="geometry" />
        </mxCell>
        <mxCell id="JR83a1QHuaQf2IRiRY_A-39" value="&lt;font style=&quot;font-size: 9px;&quot;&gt;capacity in pages&lt;/font&gt;" style="ellipse;whiteSpace=wrap;html=1;fillColor=#ffe6cc;strokeColor=#d79b00;" vertex="1" parent="1">
          <mxGeometry x="344.5" y="440" width="80" height="30" as="geometry" />
        </mxCell>
        <mxCell id="JR83a1QHuaQf2IRiRY_A-40" value="&lt;font style=&quot;font-size: 9px;&quot;&gt;capacity&lt;/font&gt;" style="ellipse;whiteSpace=wrap;html=1;fillColor=#ffe6cc;strokeColor=#d79b00;" vertex="1" parent="1">
          <mxGeometry x="650" y="450" width="80" height="30" as="geometry" />
        </mxCell>
        <mxCell id="JR83a1QHuaQf2IRiRY_A-41" value="" style="endArrow=none;html=1;rounded=0;entryX=0.5;entryY=1;entryDx=0;entryDy=0;exitX=0.5;exitY=0;exitDx=0;exitDy=0;" edge="1" parent="1" source="JR83a1QHuaQf2IRiRY_A-39" target="JR83a1QHuaQf2IRiRY_A-35">
          <mxGeometry width="50" height="50" relative="1" as="geometry">
            <mxPoint x="500" y="390" as="sourcePoint" />
            <mxPoint x="550" y="340" as="targetPoint" />
          </mxGeometry>
        </mxCell>
        <mxCell id="JR83a1QHuaQf2IRiRY_A-42" value="" style="endArrow=none;html=1;rounded=0;entryX=0.5;entryY=1;entryDx=0;entryDy=0;exitX=0.5;exitY=0;exitDx=0;exitDy=0;" edge="1" parent="1" source="JR83a1QHuaQf2IRiRY_A-40" target="JR83a1QHuaQf2IRiRY_A-18">
          <mxGeometry width="50" height="50" relative="1" as="geometry">
            <mxPoint x="670.76" y="436" as="sourcePoint" />
            <mxPoint x="670.76" y="416" as="targetPoint" />
          </mxGeometry>
        </mxCell>
        <mxCell id="JR83a1QHuaQf2IRiRY_A-43" value="" style="endArrow=none;html=1;rounded=0;exitX=1;exitY=0.5;exitDx=0;exitDy=0;entryX=0;entryY=0.5;entryDx=0;entryDy=0;fillColor=#d5e8d4;strokeColor=#82b366;" edge="1" parent="1" source="JR83a1QHuaQf2IRiRY_A-4" target="JR83a1QHuaQf2IRiRY_A-38">
          <mxGeometry width="50" height="50" relative="1" as="geometry">
            <mxPoint x="500" y="390" as="sourcePoint" />
            <mxPoint x="550" y="340" as="targetPoint" />
          </mxGeometry>
        </mxCell>
        <mxCell id="JR83a1QHuaQf2IRiRY_A-44" value="" style="endArrow=none;html=1;rounded=0;exitX=1;exitY=0;exitDx=0;exitDy=0;entryX=0;entryY=0.5;entryDx=0;entryDy=0;fillColor=#d5e8d4;strokeColor=#82b366;" edge="1" parent="1" source="JR83a1QHuaQf2IRiRY_A-4" target="JR83a1QHuaQf2IRiRY_A-37">
          <mxGeometry width="50" height="50" relative="1" as="geometry">
            <mxPoint x="500" y="390" as="sourcePoint" />
            <mxPoint x="550" y="340" as="targetPoint" />
          </mxGeometry>
        </mxCell>
        <mxCell id="JR83a1QHuaQf2IRiRY_A-45" value="&lt;font style=&quot;font-size: 8px;&quot;&gt;get bitmap&amp;nbsp;&lt;/font&gt;&lt;div&gt;&lt;font style=&quot;font-size: 8px;&quot;&gt;vector of written sectors&lt;/font&gt;&lt;/div&gt;" style="rhombus;whiteSpace=wrap;html=1;fillColor=#ffe6cc;strokeColor=#d79b00;" vertex="1" parent="1">
          <mxGeometry x="272.5" y="450" width="77.5" height="70" as="geometry" />
        </mxCell>
        <mxCell id="JR83a1QHuaQf2IRiRY_A-46" value="&lt;span style=&quot;font-size: 8px;&quot;&gt;check free slot availability&lt;/span&gt;" style="rhombus;whiteSpace=wrap;html=1;fillColor=#ffe6cc;strokeColor=#d79b00;" vertex="1" parent="1">
          <mxGeometry x="550" y="450" width="77.5" height="70" as="geometry" />
        </mxCell>
        <mxCell id="JR83a1QHuaQf2IRiRY_A-47" value="" style="endArrow=none;html=1;rounded=0;entryX=0;entryY=1;entryDx=0;entryDy=0;exitX=0.5;exitY=0;exitDx=0;exitDy=0;" edge="1" parent="1" source="JR83a1QHuaQf2IRiRY_A-45" target="JR83a1QHuaQf2IRiRY_A-35">
          <mxGeometry width="50" height="50" relative="1" as="geometry">
            <mxPoint x="500" y="390" as="sourcePoint" />
            <mxPoint x="550" y="340" as="targetPoint" />
          </mxGeometry>
        </mxCell>
        <mxCell id="JR83a1QHuaQf2IRiRY_A-48" value="" style="endArrow=none;html=1;rounded=0;entryX=0;entryY=1;entryDx=0;entryDy=0;exitX=0.5;exitY=0;exitDx=0;exitDy=0;" edge="1" parent="1" source="JR83a1QHuaQf2IRiRY_A-46" target="JR83a1QHuaQf2IRiRY_A-18">
          <mxGeometry width="50" height="50" relative="1" as="geometry">
            <mxPoint x="500" y="390" as="sourcePoint" />
            <mxPoint x="550" y="340" as="targetPoint" />
          </mxGeometry>
        </mxCell>
        <mxCell id="JR83a1QHuaQf2IRiRY_A-51" value="" style="endArrow=none;html=1;rounded=0;exitX=0.5;exitY=1;exitDx=0;exitDy=0;fillColor=#d5e8d4;strokeColor=#82b366;" edge="1" parent="1" source="JR83a1QHuaQf2IRiRY_A-45">
          <mxGeometry width="50" height="50" relative="1" as="geometry">
            <mxPoint x="500" y="390" as="sourcePoint" />
            <mxPoint x="510" y="570" as="targetPoint" />
          </mxGeometry>
        </mxCell>
        <mxCell id="JR83a1QHuaQf2IRiRY_A-52" value="" style="endArrow=none;html=1;rounded=0;exitX=0.5;exitY=1;exitDx=0;exitDy=0;fillColor=#d5e8d4;strokeColor=#82b366;" edge="1" parent="1" source="JR83a1QHuaQf2IRiRY_A-39">
          <mxGeometry width="50" height="50" relative="1" as="geometry">
            <mxPoint x="321" y="530" as="sourcePoint" />
            <mxPoint x="510" y="570" as="targetPoint" />
          </mxGeometry>
        </mxCell>
        <mxCell id="JR83a1QHuaQf2IRiRY_A-53" value="" style="endArrow=none;html=1;rounded=0;exitX=0.5;exitY=1;exitDx=0;exitDy=0;fillColor=#d5e8d4;strokeColor=#82b366;" edge="1" parent="1" source="JR83a1QHuaQf2IRiRY_A-46">
          <mxGeometry width="50" height="50" relative="1" as="geometry">
            <mxPoint x="395" y="480" as="sourcePoint" />
            <mxPoint x="510" y="570" as="targetPoint" />
          </mxGeometry>
        </mxCell>
        <mxCell id="JR83a1QHuaQf2IRiRY_A-54" value="" style="endArrow=none;html=1;rounded=0;exitX=0.5;exitY=1;exitDx=0;exitDy=0;fillColor=#d5e8d4;strokeColor=#82b366;" edge="1" parent="1" source="JR83a1QHuaQf2IRiRY_A-40">
          <mxGeometry width="50" height="50" relative="1" as="geometry">
            <mxPoint x="599" y="530" as="sourcePoint" />
            <mxPoint x="510" y="570" as="targetPoint" />
          </mxGeometry>
        </mxCell>
        <mxCell id="JR83a1QHuaQf2IRiRY_A-55" value="" style="endArrow=none;html=1;rounded=0;entryX=1;entryY=0.5;entryDx=0;entryDy=0;edgeStyle=orthogonalEdgeStyle;curved=1;fillColor=#d5e8d4;strokeColor=#82b366;" edge="1" parent="1" target="JR83a1QHuaQf2IRiRY_A-38">
          <mxGeometry width="50" height="50" relative="1" as="geometry">
            <mxPoint x="510" y="570" as="sourcePoint" />
            <mxPoint x="550" y="340" as="targetPoint" />
            <Array as="points">
              <mxPoint x="760" y="571" />
              <mxPoint x="760" y="285" />
            </Array>
          </mxGeometry>
        </mxCell>
        <mxCell id="JR83a1QHuaQf2IRiRY_A-56" value="" style="endArrow=none;html=1;rounded=0;entryX=0.5;entryY=1;entryDx=0;entryDy=0;exitX=1;exitY=0.5;exitDx=0;exitDy=0;fillColor=#d5e8d4;strokeColor=#82b366;" edge="1" parent="1" source="JR83a1QHuaQf2IRiRY_A-38" target="JR83a1QHuaQf2IRiRY_A-37">
          <mxGeometry width="50" height="50" relative="1" as="geometry">
            <mxPoint x="500" y="390" as="sourcePoint" />
            <mxPoint x="550" y="340" as="targetPoint" />
          </mxGeometry>
        </mxCell>
        <mxCell id="JR83a1QHuaQf2IRiRY_A-60" value="&lt;u&gt;&lt;b&gt;Legend:&lt;/b&gt;&lt;/u&gt;" style="text;html=1;align=center;verticalAlign=middle;whiteSpace=wrap;rounded=0;" vertex="1" parent="1">
          <mxGeometry x="105" y="160" width="60" height="30" as="geometry" />
        </mxCell>
        <mxCell id="JR83a1QHuaQf2IRiRY_A-64" value="" style="group" vertex="1" connectable="0" parent="1">
          <mxGeometry x="130" y="211" width="40" height="100" as="geometry" />
        </mxCell>
        <mxCell id="JR83a1QHuaQf2IRiRY_A-57" value="&lt;font style=&quot;font-size: 10px;&quot;&gt;class&lt;/font&gt;" style="rounded=0;whiteSpace=wrap;html=1;" vertex="1" parent="JR83a1QHuaQf2IRiRY_A-64">
          <mxGeometry x="5" width="30" height="20" as="geometry" />
        </mxCell>
        <mxCell id="JR83a1QHuaQf2IRiRY_A-58" value="&lt;font style=&quot;font-size: 9px;&quot;&gt;attribute&lt;/font&gt;" style="ellipse;whiteSpace=wrap;html=1;" vertex="1" parent="JR83a1QHuaQf2IRiRY_A-64">
          <mxGeometry y="25" width="40" height="25" as="geometry" />
        </mxCell>
        <mxCell id="JR83a1QHuaQf2IRiRY_A-59" value="&lt;font style=&quot;font-size: 9px;&quot;&gt;function&lt;/font&gt;" style="rhombus;whiteSpace=wrap;html=1;" vertex="1" parent="JR83a1QHuaQf2IRiRY_A-64">
          <mxGeometry y="54" width="40" height="40" as="geometry" />
        </mxCell>
        <mxCell id="JR83a1QHuaQf2IRiRY_A-65" value="" style="group" vertex="1" connectable="0" parent="1">
          <mxGeometry x="130" y="340" width="40" height="53" as="geometry" />
        </mxCell>
        <mxCell id="JR83a1QHuaQf2IRiRY_A-62" value="&lt;font style=&quot;font-size: 10px;&quot;&gt;exists&lt;/font&gt;" style="rounded=1;whiteSpace=wrap;html=1;fillColor=#ffe6cc;strokeColor=#d79b00;" vertex="1" parent="JR83a1QHuaQf2IRiRY_A-65">
          <mxGeometry width="40" height="20" as="geometry" />
        </mxCell>
        <mxCell id="JR83a1QHuaQf2IRiRY_A-63" value="&lt;font style=&quot;font-size: 10px;&quot;&gt;planned&lt;/font&gt;" style="rounded=1;whiteSpace=wrap;html=1;fillColor=#d5e8d4;strokeColor=#82b366;" vertex="1" parent="JR83a1QHuaQf2IRiRY_A-65">
          <mxGeometry y="33" width="40" height="20" as="geometry" />
        </mxCell>
        <mxCell id="JR83a1QHuaQf2IRiRY_A-66" value="&lt;font style=&quot;font-size: 11px;&quot;&gt;shapes:&lt;/font&gt;" style="text;html=1;align=center;verticalAlign=middle;whiteSpace=wrap;rounded=0;fontStyle=4" vertex="1" parent="1">
          <mxGeometry x="108" y="183" width="60" height="30" as="geometry" />
        </mxCell>
        <mxCell id="JR83a1QHuaQf2IRiRY_A-67" value="&lt;font style=&quot;font-size: 11px;&quot;&gt;colors:&lt;/font&gt;" style="text;html=1;align=center;verticalAlign=middle;whiteSpace=wrap;rounded=0;fontStyle=4" vertex="1" parent="1">
          <mxGeometry x="105" y="313" width="60" height="30" as="geometry" />
        </mxCell>
        <mxCell id="JR83a1QHuaQf2IRiRY_A-68" value="" style="endArrow=none;html=1;rounded=0;entryX=0.202;entryY=0.001;entryDx=0;entryDy=0;entryPerimeter=0;exitX=0.196;exitY=0.999;exitDx=0;exitDy=0;exitPerimeter=0;targetPerimeterSpacing=-6;strokeWidth=2;" edge="1" parent="1" source="JR83a1QHuaQf2IRiRY_A-1" target="JR83a1QHuaQf2IRiRY_A-1">
          <mxGeometry width="50" height="50" relative="1" as="geometry">
            <mxPoint x="240" y="610" as="sourcePoint" />
            <mxPoint x="250" y="130" as="targetPoint" />
          </mxGeometry>
        </mxCell>
      </root>
    </mxGraphModel>
  </diagram>
</mxfile>
